<svg width="180" height="180" viewBox="0 0 180 180" fill="none" xmlns="http://www.w3.org/2000/svg">
<circle cx="90.5" cy="89.5" r="70.5" fill="#0071BC"/>
<circle cx="90" cy="90" r="88" stroke="#5F5F62" stroke-width="4"/>
<path d="M32.724 89.288C31.68 89.288 30.66 89.174 29.664 88.946C28.68 88.706 27.87 88.388 27.234 87.992L28.602 84.896C29.202 85.244 29.874 85.526 30.618 85.742C31.362 85.946 32.076 86.048 32.76 86.048C33.348 86.048 33.768 85.994 34.02 85.886C34.272 85.766 34.398 85.592 34.398 85.364C34.398 85.1 34.23 84.902 33.894 84.77C33.57 84.638 33.03 84.494 32.274 84.338C31.302 84.134 30.492 83.918 29.844 83.69C29.196 83.45 28.632 83.066 28.152 82.538C27.672 81.998 27.432 81.272 27.432 80.36C27.432 79.568 27.654 78.848 28.098 78.2C28.542 77.552 29.202 77.042 30.078 76.67C30.966 76.298 32.04 76.112 33.3 76.112C34.164 76.112 35.01 76.208 35.838 76.4C36.678 76.58 37.416 76.85 38.052 77.21L36.774 80.288C35.538 79.664 34.368 79.352 33.264 79.352C32.172 79.352 31.626 79.616 31.626 80.144C31.626 80.396 31.788 80.588 32.112 80.72C32.436 80.84 32.97 80.972 33.714 81.116C34.674 81.296 35.484 81.506 36.144 81.746C36.804 81.974 37.374 82.352 37.854 82.88C38.346 83.408 38.592 84.128 38.592 85.04C38.592 85.832 38.37 86.552 37.926 87.2C37.482 87.836 36.816 88.346 35.928 88.73C35.052 89.102 33.984 89.288 32.724 89.288ZM48.8561 76.4H53.1041V89H48.8561V76.4ZM76.569 76.4V89H73.077L68.289 83.276V89H64.149V76.4H67.641L72.429 82.124V76.4H76.569ZM96.2018 86.804H91.4138L90.5678 89H86.2478L91.7558 76.4H95.9318L101.44 89H97.0478L96.2018 86.804ZM95.0318 83.744L93.8078 80.576L92.5838 83.744H95.0318ZM122.368 89L122.332 83.258L119.596 87.866H117.724L114.988 83.456V89H111.118V76.4H114.61L118.714 83.114L122.71 76.4H126.202L126.238 89H122.368ZM148.542 89L148.506 83.258L145.77 87.866H143.898L141.162 83.456V89H137.292V76.4H140.784L144.888 83.114L148.884 76.4H152.376L152.412 89H148.542Z" fill="white"/>
<path d="M32.25 99.7V101H26.83V94H32.12V95.3H28.44V96.82H31.69V98.08H28.44V99.7H32.25ZM40.459 94V101H39.129L35.639 96.75V101H34.039V94H35.379L38.859 98.25V94H40.459ZM47.3452 97.39H48.8252V100.23C48.4452 100.517 48.0052 100.737 47.5052 100.89C47.0052 101.043 46.5018 101.12 45.9952 101.12C45.2685 101.12 44.6152 100.967 44.0352 100.66C43.4552 100.347 42.9985 99.9167 42.6652 99.37C42.3385 98.8167 42.1752 98.1933 42.1752 97.5C42.1752 96.8067 42.3385 96.1867 42.6652 95.64C42.9985 95.0867 43.4585 94.6567 44.0452 94.35C44.6318 94.0367 45.2918 93.88 46.0252 93.88C46.6385 93.88 47.1952 93.9833 47.6952 94.19C48.1952 94.3967 48.6152 94.6967 48.9552 95.09L47.9152 96.05C47.4152 95.5233 46.8118 95.26 46.1052 95.26C45.6585 95.26 45.2618 95.3533 44.9152 95.54C44.5685 95.7267 44.2985 95.99 44.1052 96.33C43.9118 96.67 43.8152 97.06 43.8152 97.5C43.8152 97.9333 43.9118 98.32 44.1052 98.66C44.2985 99 44.5652 99.2667 44.9052 99.46C45.2518 99.6467 45.6452 99.74 46.0852 99.74C46.5518 99.74 46.9718 99.64 47.3452 99.44V97.39ZM50.83 94H52.45V101H50.83V94ZM61.0313 94V101H59.7013L56.2113 96.75V101H54.6113V94H55.9513L59.4312 98.25V94H61.0313ZM68.6074 99.7V101H63.1874V94H68.4774V95.3H64.7974V96.82H68.0474V98.08H64.7974V99.7H68.6074ZM75.8164 99.7V101H70.3964V94H75.6864V95.3H72.0064V96.82H75.2564V98.08H72.0064V99.7H75.8164ZM82.0654 101L80.7154 99.05H80.6354H79.2254V101H77.6054V94H80.6354C81.2554 94 81.7921 94.1033 82.2454 94.31C82.7054 94.5167 83.0587 94.81 83.3054 95.19C83.5521 95.57 83.6754 96.02 83.6754 96.54C83.6754 97.06 83.5487 97.51 83.2954 97.89C83.0487 98.2633 82.6954 98.55 82.2354 98.75L83.8054 101H82.0654ZM82.0354 96.54C82.0354 96.1467 81.9087 95.8467 81.6554 95.64C81.4021 95.4267 81.0321 95.32 80.5454 95.32H79.2254V97.76H80.5454C81.0321 97.76 81.4021 97.6533 81.6554 97.44C81.9087 97.2267 82.0354 96.9267 82.0354 96.54ZM85.4589 94H87.0789V101H85.4589V94ZM95.6602 94V101H94.3302L90.8402 96.75V101H89.2402V94H90.5802L94.0602 98.25V94H95.6602ZM102.546 97.39H104.026V100.23C103.646 100.517 103.206 100.737 102.706 100.89C102.206 101.043 101.703 101.12 101.196 101.12C100.47 101.12 99.8163 100.967 99.2363 100.66C98.6563 100.347 98.1997 99.9167 97.8663 99.37C97.5397 98.8167 97.3763 98.1933 97.3763 97.5C97.3763 96.8067 97.5397 96.1867 97.8663 95.64C98.1997 95.0867 98.6597 94.6567 99.2463 94.35C99.833 94.0367 100.493 93.88 101.226 93.88C101.84 93.88 102.396 93.9833 102.896 94.19C103.396 94.3967 103.816 94.6967 104.156 95.09L103.116 96.05C102.616 95.5233 102.013 95.26 101.306 95.26C100.86 95.26 100.463 95.3533 100.116 95.54C99.7697 95.7267 99.4997 95.99 99.3063 96.33C99.113 96.67 99.0163 97.06 99.0163 97.5C99.0163 97.9333 99.113 98.32 99.3063 98.66C99.4997 99 99.7663 99.2667 100.106 99.46C100.453 99.6467 100.846 99.74 101.286 99.74C101.753 99.74 102.173 99.64 102.546 99.44V97.39ZM109.363 94H110.983V99.68H114.493V101H109.363V94ZM115.898 94H117.518V101H115.898V94ZM126.05 101L126.04 96.8L123.98 100.26H123.25L121.2 96.89V101H119.68V94H121.02L123.64 98.35L126.22 94H127.55L127.57 101H126.05ZM129.73 94H131.35V101H129.73V94ZM134.962 95.32H132.722V94H138.822V95.32H136.582V101H134.962V95.32ZM145.613 99.7V101H140.193V94H145.483V95.3H141.803V96.82H145.053V98.08H141.803V99.7H145.613ZM147.402 94H150.582C151.342 94 152.012 94.1467 152.592 94.44C153.179 94.7267 153.632 95.1333 153.952 95.66C154.279 96.1867 154.442 96.8 154.442 97.5C154.442 98.2 154.279 98.8133 153.952 99.34C153.632 99.8667 153.179 100.277 152.592 100.57C152.012 100.857 151.342 101 150.582 101H147.402V94ZM150.502 99.67C151.202 99.67 151.759 99.4767 152.172 99.09C152.592 98.6967 152.802 98.1667 152.802 97.5C152.802 96.8333 152.592 96.3067 152.172 95.92C151.759 95.5267 151.202 95.33 150.502 95.33H149.022V99.67H150.502Z" fill="white"/>
</svg>
